<svg width="200" height="100" viewBox="0 0 200 100" fill="none" xmlns="http://www.w3.org/2000/svg">
<path d="M99.8428 14.2041C130.103 14.1889 160.393 9.84443 199.002 1.23752C198.845 13.8185 196.291 26.2583 191.473 37.8895C186.498 49.9019 179.205 60.8167 170.011 70.0107C160.817 79.2046 149.902 86.4976 137.889 91.4733C125.877 96.449 113.002 99.01 100 99.01C86.9978 99.01 74.123 96.449 62.1105 91.4733C50.0981 86.4976 39.1833 79.2046 29.9894 70.0106C20.7954 60.8167 13.5024 49.9019 8.52668 37.8895C3.70931 26.2593 1.15544 13.8207 0.997775 1.24087C39.3985 9.90589 69.584 14.2194 99.8428 14.2041Z" fill="#E7963A" stroke="black" stroke-width="1.98" stroke-linejoin="round"/>
</svg>
